<svg width="20" height="20" viewBox="0 0 20 20" fill="none" xmlns="http://www.w3.org/2000/svg">
<path d="M10 19C14.9706 19 19 14.9706 19 10C19 5.02944 14.9706 1 10 1C5.02944 1 1 5.02944 1 10C1 14.9706 5.02944 19 10 19Z" stroke="black" stroke-width="1.8" stroke-linecap="round" stroke-linejoin="round"/>
<path d="M6.3999 1.90039C8.5221 4.25689 10.1221 6.68689 11.1999 9.19039C12.2777 11.6939 13.0777 14.6639 13.5999 18.1004" stroke="black" stroke-width="1.8" stroke-linecap="round" stroke-linejoin="round"/>
<path d="M1.20093 9.0855C4.69133 9.1958 7.79023 8.6849 10.4975 7.5528C13.2569 6.3992 15.1909 5.1149 16.2999 3.7002M4.59993 16.3002C6.48753 13.2506 9.52523 11.3372 12.0853 10.5522C14.91 9.6862 16.3901 9.9026 18.9999 10.7609" stroke="black" stroke-width="1.8" stroke-linecap="round" stroke-linejoin="round"/>
</svg>
