<svg width="310" height="310" viewBox="0 0 310 310" fill="none" xmlns="http://www.w3.org/2000/svg">
<g clip-path="url(#clip0_1532_1953)">
<path d="M249.775 236.928C248.162 236.055 246.195 236.139 244.656 237.149C230.506 246.444 216.187 251.156 202.099 251.156C194.421 251.156 187.814 249.431 181.863 245.859C177.84 243.493 175.175 240.46 173.724 236.602C172.617 233.624 171.294 225.702 171.294 204.863V132.918H237.462C240.224 132.918 242.462 130.679 242.462 127.918V80.818C242.462 78.056 240.224 75.818 237.462 75.818H171.294V5C171.294 2.238 169.056 0 166.294 0H123.61C121.087 0 118.958 1.881 118.649 4.386C116.813 19.217 113.448 31.529 108.639 40.987C103.895 50.368 97.498 58.513 89.621 65.203C81.779 71.89 72.17 77.102 61.058 80.694C58.994 81.361 57.595 83.283 57.595 85.452V127.918C57.595 130.679 59.833 132.918 62.595 132.918H90.763V233.155C90.763 247.647 92.286 258.515 95.419 266.373C98.577 274.328 104.249 281.869 112.282 288.791C120.204 295.592 129.85 300.895 140.952 304.549C151.923 308.167 164.682 310.001 178.874 310.001C191.29 310.001 203.015 308.732 213.724 306.229C224.454 303.715 236.503 299.319 249.535 293.164C251.285 292.338 252.4 290.577 252.4 288.643V241.329C252.402 239.49 251.395 237.8 249.775 236.928Z" fill="black"/>
</g>
<defs>
<clipPath id="clip0_1532_1953">
<rect width="310" height="310" fill="white"/>
</clipPath>
</defs>
</svg>
