<svg width="512" height="512" viewBox="0 0 512 512" fill="none" xmlns="http://www.w3.org/2000/svg">
<g clip-path="url(#clip0_308_9697)">
<mask id="mask0_308_9697" style="mask-type:luminance" maskUnits="userSpaceOnUse" x="0" y="0" width="512" height="512">
<path d="M0 0H512V512H0V0Z" fill="white"/>
</mask>
<g mask="url(#mask0_308_9697)">
<path d="M373.403 339.292L373.113 339.636L373.425 339.96L495.282 466.697C505.399 477.221 505.064 493.999 494.549 504.117C489.601 508.88 483.083 511.5 476.211 511.5C468.95 511.5 462.177 508.616 457.139 503.384L334.357 375.686L334.06 375.377L333.709 375.623C298.929 400.065 258.252 412.94 215.564 412.94C101.856 412.94 9.34399 320.427 9.34399 206.72C9.34399 93.012 101.856 0.5 215.564 0.5C329.271 0.5 421.784 93.012 421.784 206.72C421.784 255.388 404.659 302.136 373.403 339.292ZM368.857 206.72C368.857 122.192 300.092 53.427 215.564 53.427C131.036 53.427 62.271 122.192 62.271 206.72C62.271 291.248 131.036 360.013 215.564 360.013C300.092 360.013 368.857 291.248 368.857 206.72Z" fill="white"/>
<path d="M494.549 504.117C505.064 493.999 505.399 477.221 495.282 466.697L373.425 339.96L373.113 339.636L373.403 339.292C404.659 302.136 421.784 255.388 421.784 206.72C421.784 93.012 329.271 0.5 215.564 0.5C101.856 0.5 9.34399 93.012 9.34399 206.72C9.34399 320.427 101.856 412.94 215.564 412.94C258.252 412.94 298.929 400.065 333.709 375.623L334.06 375.377L334.357 375.686L457.139 503.384C462.177 508.616 468.95 511.5 476.211 511.5C483.083 511.5 489.601 508.88 494.549 504.117ZM494.549 504.117L494.896 504.477M368.857 206.72C368.857 122.192 300.092 53.427 215.564 53.427C131.036 53.427 62.271 122.192 62.271 206.72C62.271 291.248 131.036 360.013 215.564 360.013C300.092 360.013 368.857 291.248 368.857 206.72Z" stroke="#B59F5B"/>
</g>
</g>
<defs>
<clipPath id="clip0_308_9697">
<rect width="512" height="512" fill="white"/>
</clipPath>
</defs>
</svg>
