<svg width="3070" height="696" viewBox="0 0 3070 696" fill="none" xmlns="http://www.w3.org/2000/svg">
<g clip-path="url(#clip0_1532_1961)">
<path d="M485.331 135.438V696H481.569L105.343 353.643L109.105 673.427H0V112.865H3.7623L379.988 458.984L376.226 135.438H485.331Z" fill="#B59F5B"/>
<path d="M861.808 165.967L861.817 165.962L861.825 165.957C903.116 139.682 948.166 128.414 1000.76 128.414C1053.34 128.414 1094.64 139.675 1139.7 165.962C1181.02 192.257 1214.83 226.063 1241.12 267.382C1267.4 308.675 1278.67 353.725 1278.67 402.551C1278.67 451.374 1267.4 496.433 1241.11 541.499C1214.83 586.558 1181.03 616.602 1139.69 642.908C1098.4 669.183 1053.35 680.451 1000.76 680.451C951.939 680.451 906.882 669.188 861.817 642.903C820.482 616.598 786.691 586.555 760.407 541.499C734.12 496.436 722.856 455.144 722.853 402.572C726.613 357.483 737.885 308.663 760.406 267.368C786.71 226.037 816.754 192.248 861.808 165.967ZM857.36 493.091C872.436 519.475 891.304 542.127 917.742 557.234C944.153 572.326 970.574 579.873 1004.52 579.873C1034.71 579.873 1061.13 572.323 1087.54 557.234C1113.98 542.127 1132.85 519.475 1147.92 493.091C1163.02 466.677 1170.56 436.493 1170.56 406.314C1170.56 372.366 1163.01 345.946 1147.92 319.536C1132.85 293.153 1113.98 270.5 1087.54 255.393C1061.13 240.304 1034.71 232.754 1004.52 232.754C974.418 232.754 940.392 236.508 917.67 255.443L917.638 255.47C895.086 274.263 872.454 293.122 857.36 319.536C842.265 345.951 834.721 376.134 834.721 406.314C834.721 436.493 842.265 466.677 857.36 493.091ZM1617.77 572.349H1888.15V672.927H1516.69V135.938H1880.63V236.516H1617.27V354.143H1850.53V454.722H1617.27V572.349H1617.77ZM1834.67 0.5L1726.68 97.3162H1663.81L1723.39 0.5H1834.67ZM2584.26 417.31L2407.84 665.046L2238.95 432.355L2238.04 431.108V672.927H2137.46V114.453L2407.43 500.654L2407.84 501.228L2408.25 500.662L2689.51 114.401V672.927H2585.17V416.036L2584.26 417.31ZM3069.5 135.938V672.927H2965.16V135.938H3069.5Z" fill="white" stroke="#E8E8E8"/>
</g>
<defs>
<clipPath id="clip0_1532_1961">
<rect width="3070" height="696" fill="white"/>
</clipPath>
</defs>
</svg>
