<svg width="311" height="311" viewBox="0 0 311 311" fill="none" xmlns="http://www.w3.org/2000/svg">
<g clip-path="url(#clip0_1532_1949)">
<path d="M245.265 31.772C223.923 11.284 194.388 0 162.101 0C112.781 0 82.4469 20.217 65.6849 37.176C45.0269 58.076 33.1809 85.827 33.1809 113.315C33.1809 147.828 47.6169 174.318 71.7919 184.173C73.4149 184.838 75.0479 185.173 76.6489 185.173C81.7489 185.173 85.7899 181.836 87.1899 176.483C88.0059 173.412 89.8969 165.836 90.7189 162.547C92.4789 156.052 91.0569 152.928 87.2189 148.405C80.2269 140.132 76.9709 130.349 76.9709 117.617C76.9709 79.799 105.131 39.606 157.323 39.606C198.735 39.606 224.46 63.143 224.46 101.031C224.46 124.94 219.31 147.082 209.956 163.381C203.456 174.706 192.026 188.206 174.479 188.206C166.891 188.206 160.075 185.089 155.774 179.655C151.711 174.518 150.372 167.882 152.006 160.966C153.852 153.152 156.369 145.001 158.805 137.121C163.248 122.729 167.448 109.136 167.448 98.291C167.448 79.741 156.044 67.277 139.073 67.277C117.505 67.277 100.608 89.183 100.608 117.148C100.608 130.863 104.253 141.121 105.903 145.06C103.186 156.572 87.0379 225.013 83.9749 237.919C82.2039 245.453 71.5349 304.958 89.1939 309.703C109.035 315.034 126.77 257.08 128.575 250.531C130.038 245.205 135.157 225.066 138.294 212.686C147.872 221.912 163.294 228.149 178.3 228.149C206.589 228.149 232.03 215.419 249.937 192.306C267.304 169.888 276.869 138.642 276.869 104.328C276.869 77.502 265.349 51.056 245.265 31.772Z" fill="black"/>
</g>
<defs>
<clipPath id="clip0_1532_1949">
<rect width="310.05" height="310.05" fill="white"/>
</clipPath>
</defs>
</svg>
